<?xml version="1.0" standalone="no"?>
<!DOCTYPE svg PUBLIC "-//W3C//DTD SVG 20010904//EN"
 "http://www.w3.org/TR/2001/REC-SVG-20010904/DTD/svg10.dtd">
<svg version="1.0" xmlns="http://www.w3.org/2000/svg"
 width="525.000000pt" height="525.000000pt" viewBox="0 0 525.000000 525.000000"
 preserveAspectRatio="xMidYMid meet">
<metadata>
Created by potrace 1.11, written by Peter Selinger 2001-2013
</metadata>
<g transform="translate(0.000000,525.000000) scale(0.100000,-0.100000)"
fill="#000000" stroke="none">
<path d="M2300 5050 c-588 -62 -1111 -314 -1515 -732 -115 -118 -264 -309
-330 -420 l-37 -64 -65 -11 c-323 -56 -464 -443 -248 -682 l38 -42 -17 -117
c-34 -235 -31 -551 9 -757 l13 -70 -42 -45 c-220 -236 -74 -631 252 -683 l67
-11 75 -114 c400 -611 1053 -1006 1789 -1083 158 -16 472 -6 626 20 339 58
687 193 945 367 28 20 48 24 105 24 212 0 361 84 438 247 27 59 32 81 35 168
l4 99 65 91 c130 181 239 394 310 600 39 114 78 258 88 328 5 31 13 50 24 54
173 57 285 179 313 341 34 197 -94 408 -279 463 -41 12 -43 14 -53 68 -66 336
-211 674 -407 949 l-45 63 -1 102 c-2 92 -5 108 -34 169 -77 162 -224 247
-430 248 -70 0 -74 1 -155 54 -283 184 -612 307 -968 361 -125 19 -450 27
-570 15z m546 -215 c153 -23 358 -78 494 -132 228 -90 277 -82 -480 -83 -735
0 -733 0 -839 -63 -69 -42 -126 -106 -165 -187 -29 -60 -31 -73 -31 -170 0
-102 1 -109 37 -181 46 -93 112 -158 206 -202 l67 -32 1005 0 1005 0 70 33
c39 18 84 47 102 64 l32 31 51 -79 c98 -153 197 -366 251 -539 21 -69 59 -224
59 -242 0 -10 -194 -13 -897 -15 l-898 -3 -67 -32 c-88 -41 -160 -113 -201
-201 -30 -63 -32 -74 -32 -177 0 -103 2 -114 32 -177 61 -130 186 -220 331
-239 37 -4 442 -8 900 -9 789 0 833 -1 828 -17 -2 -10 -14 -58 -26 -108 -48
-198 -162 -456 -282 -642 -41 -64 -64 -91 -72 -85 -77 61 -117 85 -172 102
-62 19 -92 20 -529 20 -525 0 -538 -2 -647 -80 -274 -196 -217 -603 102 -735
36 -15 81 -20 230 -24 l185 -6 -130 -52 c-259 -104 -488 -151 -766 -160 -520
-17 -990 131 -1413 445 -133 99 -343 310 -444 447 l-82 110 833 5 c825 5 832
5 885 27 114 46 214 154 247 266 21 72 19 191 -4 260 -50 145 -172 249 -323
277 -35 7 -396 9 -1010 8 l-956 -3 -11 89 c-25 195 -23 484 5 625 l5 26 461
-3 c297 -2 479 1 510 8 130 27 244 118 301 237 30 63 32 75 32 173 0 97 -2
110 -31 171 -54 114 -138 190 -252 228 -57 20 -84 21 -382 21 l-321 0 40 59
c115 169 302 369 461 492 358 279 744 428 1220 473 87 8 368 -3 476 -19z
m1304 -445 c130 -73 150 -259 37 -355 -22 -19 -58 -40 -78 -45 -24 -7 -376 -9
-986 -8 l-950 3 -49 30 c-61 37 -104 114 -104 185 0 90 70 183 156 210 16 5
457 8 979 7 l950 -2 45 -25z m-2834 -784 c138 -64 166 -236 56 -349 -63 -65
-81 -67 -552 -67 -471 0 -489 2 -552 67 -71 73 -86 159 -44 249 25 53 74 99
123 114 15 4 228 9 473 9 l445 1 51 -24z m3609 -785 c165 -76 166 -308 3 -392
-36 -18 -72 -19 -998 -19 -926 0 -962 1 -998 19 -137 71 -165 250 -55 352 66
62 -3 58 1048 58 914 1 962 0 1000 -18z m-2600 -792 c70 -35 107 -92 113 -168
5 -72 -10 -121 -51 -168 -68 -77 2 -73 -1062 -73 l-950 0 -51 24 c-140 65
-166 245 -52 354 67 63 30 61 1063 59 l941 -2 49 -26z m1766 -770 c89 -27 149
-109 149 -204 0 -93 -36 -156 -115 -198 -39 -21 -51 -22 -485 -25 -486 -3
-492 -2 -561 55 -122 103 -83 315 67 368 51 19 885 21 945 4z"/>
</g>
</svg>
